<mxfile host="drawio-plugin" modified="2021-05-07T13:40:13.476Z" agent="5.0 (Windows NT 6.2; Win64; x64) AppleWebKit/537.36 (KHTML, like Gecko) Chrome/87.0.4280.141 Safari/537.36" version="13.7.9" etag="rg6RhkVm3-qAGKC1dBXN" type="embed"><diagram id="ebTPwbKI2ClYz0F6z45i" name="Page-1"><mxGraphModel dx="1050" dy="686" grid="1" gridSize="10" guides="1" tooltips="1" connect="1" arrows="1" fold="1" page="1" pageScale="1" pageWidth="850" pageHeight="1100" background="#ffffff" math="0" shadow="0"><root><mxCell id="0"/><mxCell id="1" parent="0"/><mxCell id="6" value="&lt;&lt;interface&gt;&gt;&#10;Cloneable" style="swimlane;fontStyle=1;align=center;verticalAlign=top;childLayout=stackLayout;horizontal=1;startSize=40;horizontalStack=0;resizeParent=1;resizeParentMax=0;resizeLast=0;collapsible=1;marginBottom=0;strokeColor=#7A9EF0;fillColor=#FFFFFF;gradientColor=none;fontColor=#000000;strokeWidth=3;" vertex="1" parent="1"><mxGeometry x="265" y="120" width="160" height="66" as="geometry"/></mxCell><mxCell id="9" value="+ clone(): " style="text;strokeColor=none;align=left;verticalAlign=top;spacingLeft=4;spacingRight=4;overflow=hidden;rotatable=0;points=[[0,0.5],[1,0.5]];portConstraint=eastwest;fontColor=#000000;fillColor=#FFFFFF;strokeWidth=3;" vertex="1" parent="6"><mxGeometry y="40" width="160" height="26" as="geometry"/></mxCell><mxCell id="14" value="" style="endArrow=block;dashed=1;endFill=0;endSize=12;html=1;fontColor=#000000;entryX=0.5;entryY=1;entryDx=0;entryDy=0;exitX=0.5;exitY=0;exitDx=0;exitDy=0;spacingTop=7;strokeColor=#7A9EF0;strokeWidth=3;" edge="1" parent="1" source="10" target="6"><mxGeometry width="160" relative="1" as="geometry"><mxPoint x="180" y="390" as="sourcePoint"/><mxPoint x="340" y="390" as="targetPoint"/></mxGeometry></mxCell><mxCell id="10" value="Shape" style="swimlane;fontStyle=0;childLayout=stackLayout;horizontal=1;startSize=52;horizontalStack=0;resizeParent=1;resizeParentMax=0;resizeLast=0;collapsible=1;marginBottom=0;strokeColor=#7A9EF0;fillColor=#FFFFFF;fontColor=#000000;strokeWidth=3;perimeterSpacing=3;" vertex="1" parent="1"><mxGeometry x="275" y="270" width="140" height="52" as="geometry"/></mxCell><mxCell id="15" value="Triangle" style="swimlane;fontStyle=0;childLayout=stackLayout;horizontal=1;startSize=26;horizontalStack=0;resizeParent=1;resizeParentMax=0;resizeLast=0;collapsible=1;marginBottom=0;strokeColor=#7A9EF0;strokeWidth=3;fillColor=#FFFFFF;fontColor=#000000;" vertex="1" parent="1"><mxGeometry x="170" y="450" width="140" height="164" as="geometry"/></mxCell><mxCell id="16" value="- __first_side: float" style="text;strokeColor=none;align=left;verticalAlign=top;spacingLeft=4;spacingRight=4;overflow=hidden;rotatable=0;points=[[0,0.5],[1,0.5]];portConstraint=eastwest;fillColor=#FFFFFF;fontColor=#000000;" vertex="1" parent="15"><mxGeometry y="26" width="140" height="26" as="geometry"/></mxCell><mxCell id="17" value="- __second_side: float" style="text;strokeColor=none;align=left;verticalAlign=top;spacingLeft=4;spacingRight=4;overflow=hidden;rotatable=0;points=[[0,0.5],[1,0.5]];portConstraint=eastwest;fillColor=#FFFFFF;fontColor=#000000;" vertex="1" parent="15"><mxGeometry y="52" width="140" height="26" as="geometry"/></mxCell><mxCell id="18" value="- __third_side: float" style="text;align=left;verticalAlign=top;spacingLeft=4;spacingRight=4;overflow=hidden;rotatable=0;points=[[0,0.5],[1,0.5]];portConstraint=eastwest;fillColor=#FFFFFF;fontColor=#000000;" vertex="1" parent="15"><mxGeometry y="78" width="140" height="26" as="geometry"/></mxCell><mxCell id="33" value="" style="line;strokeWidth=2;align=left;verticalAlign=middle;spacingTop=-1;spacingLeft=3;spacingRight=3;rotatable=0;labelPosition=right;points=[];portConstraint=eastwest;rounded=0;strokeColor=#7A9EF0;" vertex="1" parent="15"><mxGeometry y="104" width="140" height="8" as="geometry"/></mxCell><mxCell id="25" value="+ __init__: None" style="text;align=left;verticalAlign=top;spacingLeft=4;spacingRight=4;overflow=hidden;rotatable=0;points=[[0,0.5],[1,0.5]];portConstraint=eastwest;fontColor=#000000;fillColor=#FFFFFF;rounded=0;strokeWidth=1;" vertex="1" parent="15"><mxGeometry y="112" width="140" height="26" as="geometry"/></mxCell><mxCell id="30" value="+ copy: Triangle" style="text;align=left;verticalAlign=top;spacingLeft=4;spacingRight=4;overflow=hidden;rotatable=0;points=[[0,0.5],[1,0.5]];portConstraint=eastwest;rounded=0;fontColor=#000000;fillColor=#FFFFFF;strokeWidth=1;" vertex="1" parent="15"><mxGeometry y="138" width="140" height="26" as="geometry"/></mxCell><mxCell id="34" value="return" style="html=1;verticalAlign=bottom;endArrow=open;dashed=1;endSize=8;labelBackgroundColor=none;strokeColor=#7A9EF0;strokeWidth=3;fontColor=#000000;entryX=1;entryY=0.073;entryDx=0;entryDy=0;entryPerimeter=0;exitX=1;exitY=0.5;exitDx=0;exitDy=0;" edge="1" parent="15" source="30" target="15"><mxGeometry x="0.0824" relative="1" as="geometry"><mxPoint x="260" y="130" as="sourcePoint"/><mxPoint x="180" y="140" as="targetPoint"/><Array as="points"><mxPoint x="210" y="151"/><mxPoint x="210" y="70"/><mxPoint x="210" y="12"/></Array><mxPoint as="offset"/></mxGeometry></mxCell><mxCell id="19" value="Rectangle" style="swimlane;fontStyle=0;childLayout=stackLayout;horizontal=1;startSize=26;horizontalStack=0;resizeParent=1;resizeParentMax=0;resizeLast=0;collapsible=1;marginBottom=0;strokeColor=#7A9EF0;strokeWidth=3;fillColor=#FFFFFF;fontColor=#000000;" vertex="1" parent="1"><mxGeometry x="490" y="450" width="160" height="164" as="geometry"/></mxCell><mxCell id="20" value="- __height: float" style="text;strokeColor=none;align=left;verticalAlign=top;spacingLeft=4;spacingRight=4;overflow=hidden;rotatable=0;points=[[0,0.5],[1,0.5]];portConstraint=eastwest;fillColor=#FFFFFF;fontColor=#000000;" vertex="1" parent="19"><mxGeometry y="26" width="160" height="26" as="geometry"/></mxCell><mxCell id="21" value="- __width: float" style="text;strokeColor=none;align=left;verticalAlign=top;spacingLeft=4;spacingRight=4;overflow=hidden;rotatable=0;points=[[0,0.5],[1,0.5]];portConstraint=eastwest;fillColor=#FFFFFF;fontColor=#000000;" vertex="1" parent="19"><mxGeometry y="52" width="160" height="26" as="geometry"/></mxCell><mxCell id="22" value="- __square: float" style="text;strokeColor=none;align=left;verticalAlign=top;spacingLeft=4;spacingRight=4;overflow=hidden;rotatable=0;points=[[0,0.5],[1,0.5]];portConstraint=eastwest;fillColor=#FFFFFF;fontColor=#000000;" vertex="1" parent="19"><mxGeometry y="78" width="160" height="26" as="geometry"/></mxCell><mxCell id="36" value="" style="line;strokeWidth=2;fillColor=none;align=left;verticalAlign=middle;spacingTop=-1;spacingLeft=3;spacingRight=3;rotatable=0;labelPosition=right;points=[];portConstraint=eastwest;rounded=0;fontColor=#000000;strokeColor=#7A9EF0;" vertex="1" parent="19"><mxGeometry y="104" width="160" height="8" as="geometry"/></mxCell><mxCell id="38" value="+ set_verticies_name(str) " style="text;strokeColor=none;align=left;verticalAlign=top;spacingLeft=4;spacingRight=4;overflow=hidden;rotatable=0;points=[[0,0.5],[1,0.5]];portConstraint=eastwest;rounded=0;fontColor=#000000;fillColor=#FFFFFF;" vertex="1" parent="19"><mxGeometry y="112" width="160" height="26" as="geometry"/></mxCell><mxCell id="39" value="+ clone: Rectangle" style="text;strokeColor=none;align=left;verticalAlign=top;spacingLeft=4;spacingRight=4;overflow=hidden;rotatable=0;points=[[0,0.5],[1,0.5]];portConstraint=eastwest;rounded=0;fontColor=#000000;fillColor=#FFFFFF;" vertex="1" parent="19"><mxGeometry y="138" width="160" height="26" as="geometry"/></mxCell><mxCell id="40" value="return" style="html=1;verticalAlign=bottom;endArrow=open;dashed=1;endSize=8;labelBackgroundColor=none;strokeColor=#7A9EF0;strokeWidth=3;fontColor=#000000;exitX=1;exitY=0.5;exitDx=0;exitDy=0;entryX=1.013;entryY=0.067;entryDx=0;entryDy=0;entryPerimeter=0;" edge="1" parent="19" source="39" target="19"><mxGeometry relative="1" as="geometry"><mxPoint x="-60" y="260" as="sourcePoint"/><mxPoint x="240" y="-20" as="targetPoint"/><Array as="points"><mxPoint x="240" y="151"/><mxPoint x="240" y="11"/></Array></mxGeometry></mxCell><mxCell id="23" value="Extends" style="endArrow=block;endSize=16;endFill=0;html=1;strokeColor=#7A9EF0;strokeWidth=3;entryX=0.5;entryY=1;entryDx=0;entryDy=0;exitX=0.5;exitY=0;exitDx=0;exitDy=0;fontColor=#000000;labelBackgroundColor=none;" edge="1" parent="1" source="15" target="10"><mxGeometry width="160" relative="1" as="geometry"><mxPoint x="20" y="380" as="sourcePoint"/><mxPoint x="180" y="380" as="targetPoint"/></mxGeometry></mxCell><mxCell id="24" value="&lt;font&gt;Extends&lt;/font&gt;" style="endArrow=block;endSize=16;endFill=0;html=1;strokeColor=#7A9EF0;strokeWidth=3;entryX=0.5;entryY=1;entryDx=0;entryDy=0;exitX=0.5;exitY=0;exitDx=0;exitDy=0;labelBackgroundColor=none;fontColor=#000000;" edge="1" parent="1" source="19" target="10"><mxGeometry width="160" relative="1" as="geometry"><mxPoint x="420" y="380" as="sourcePoint"/><mxPoint x="580" y="380" as="targetPoint"/></mxGeometry></mxCell></root></mxGraphModel></diagram></mxfile>